# xmcd
#
# Track frame offsets:
#	150
#	28862
#	56042
#	80207
#	97167
#	114990
#	130872
#	150207
#	161777
#	179412
#	200277
#	219867
#
# Disc length: 3147 seconds
#
# Revision: 1
# Processed by: cddbd v1.5.2PL0 Copyright (c) Steve Scherf et al.
# Submitted via: audiograbber 1.83.01
#
DISCID=a10c490c
DTITLE=Various Artist - Lullabies
DYEAR=1997
DGENRE=Orchestral
TTITLE0=Ray Lynch - Good News
TTITLE1=Liz Story - Church Of Trees
TTITLE2=Douglas Spotted Eagle - Dieshu
TTITLE3=Scott Cossu - A Child's Eyes (Jenny's Song)
TTITLE4=Michael Manring - Sung To Sleep
TTITLE5=Philip Aaberg - Shepherd's Rocking Carol
TTITLE6=Johnny Cunningham - King Holly, King Oak
TTITLE7=Micheal Hedges - Bensusan
TTITLE8=Michael Manring - Hopeful
TTITLE9=William Ackerman - Just Before Dawn
TTITLE10=Schonherz and Scott - Peace Of Mind
TTITLE11=Barbara Higbie - Fortune Smiles
EXTD=
EXTT0=
EXTT1=
EXTT2=
EXTT3=
EXTT4=
EXTT5=
EXTT6=
EXTT7=
EXTT8=
EXTT9=
EXTT10=
EXTT11=
PLAYORDER=
